<?xml version="1.0" standalone="no"?>
<!DOCTYPE svg PUBLIC "-//W3C//DTD SVG 20010904//EN"
 "http://www.w3.org/TR/2001/REC-SVG-20010904/DTD/svg10.dtd">
<svg version="1.0" xmlns="http://www.w3.org/2000/svg"
 width="300.000000pt" height="300.000000pt" viewBox="0 0 300.000000 300.000000"
 preserveAspectRatio="xMidYMid meet">
<metadata>
Created by potrace 1.10, written by Peter Selinger 2001-2011
</metadata>
<g transform="translate(0.000000,300.000000) scale(0.100000,-0.100000)"
fill="#000000" stroke="none">
<path d="M1708 2122 c-59 -26 -108 -50 -108 -54 0 -3 14 -9 31 -13 18 -4 29
-12 26 -19 -3 -7 -55 -81 -116 -164 -61 -83 -116 -162 -121 -174 -5 -13 -56
-86 -113 -163 -74 -101 -111 -143 -132 -150 -32 -11 -43 -30 -22 -38 38 -14
84 34 207 215 72 105 80 114 121 124 l44 12 -48 3 -48 4 60 70 c33 39 60 75
61 82 0 6 4 13 9 15 4 2 20 21 35 43 15 22 38 56 52 75 16 22 23 42 20 56 -7
26 2 34 73 62 64 26 73 20 69 -48 -2 -48 -15 -70 -36 -63 -22 9 -63 -27 -83
-74 -11 -26 -36 -68 -55 -95 -20 -26 -33 -48 -30 -48 3 0 37 45 76 100 40 55
76 102 81 105 4 3 20 -2 34 -11 l25 -16 0 106 c0 58 -1 106 -2 105 -2 -1 -51
-22 -110 -47z"/>
<path d="M845 1830 l59 -60 104 0 c117 0 151 -12 182 -63 37 -61 17 -157 -41
-200 -14 -10 -43 -21 -65 -24 -39 -5 -39 -5 -36 -47 6 -80 7 -83 49 -77 l38 5
-35 7 c-34 6 -34 6 -5 8 49 2 90 35 160 128 62 82 66 91 62 130 -6 58 10 80
19 25 l7 -42 53 77 53 76 -41 59 c-40 57 -42 58 -89 58 l-49 0 0 -36 c0 -20
11 -54 26 -80 14 -24 24 -49 22 -56 -3 -7 -17 11 -33 39 -29 55 -79 96 -142
119 -26 9 -90 13 -198 14 l-159 0 59 -60z m325 11 c25 -11 52 -27 61 -34 19
-15 69 -86 69 -98 0 -5 -19 -9 -42 -9 -37 0 -45 4 -60 30 -9 16 -32 39 -50 50
-33 21 -39 22 -151 4 -31 -5 -45 -1 -77 21 -43 30 -51 51 -22 58 9 2 64 3 122
2 83 -2 115 -7 150 -24z m206 7 c11 -13 28 -36 38 -51 16 -26 16 -31 2 -51
-43 -66 -71 -72 -86 -18 -6 20 -17 46 -25 56 -15 20 -20 67 -8 79 14 15 61 6
79 -15z m-91 -226 c-3 -16 -15 -38 -27 -48 l-21 -19 7 49 c11 72 15 81 33 63
10 -10 13 -24 8 -45z m-111 -156 c-7 -19 -72 -69 -83 -64 -20 7 10 49 39 54
16 4 30 10 30 15 0 5 4 9 10 9 5 0 7 -7 4 -14z"/>
<path d="M1665 1833 c-77 -101 -78 -101 -71 -79 11 34 -21 -2 -44 -49 -12 -24
-28 -49 -36 -55 -17 -15 -19 -44 -2 -34 7 4 8 3 4 -4 -4 -6 -13 -9 -20 -6 -24
9 -27 -47 -4 -83 22 -37 33 -41 42 -17 9 24 110 163 119 163 4 1 7 -37 7 -84
l0 -85 55 0 55 0 0 53 c0 57 -6 71 -32 75 -12 2 -15 -3 -11 -18 7 -26 -5 -72
-17 -65 -17 11 -12 105 7 123 12 12 18 13 21 4 2 -7 8 -10 12 -7 5 3 12 0 16
-6 4 -8 3 -9 -4 -5 -7 4 -12 3 -12 -3 0 -21 104 -71 147 -71 30 0 48 -6 63
-22 25 -27 25 -40 2 -61 -16 -15 -45 -17 -197 -17 l-179 0 54 -56 55 -55 142
3 c154 3 170 9 217 72 29 38 29 134 0 173 -41 55 -76 67 -201 67 l-113 1 0 28
c0 17 5 27 15 27 18 0 18 5 4 32 -9 16 -6 24 13 45 38 41 77 51 204 53 147 3
172 5 181 13 11 12 -282 8 -318 -4 -45 -14 -99 -74 -99 -110 0 -15 -7 -34 -15
-43 -8 -8 -13 -21 -10 -28 4 -11 -9 -13 -67 -10 -40 2 -76 7 -81 11 -4 4 0 16
9 27 15 19 16 19 10 -1 -4 -13 4 -7 22 15 15 19 47 55 72 79 37 37 46 42 48
27 2 -10 -6 -28 -17 -40 -21 -23 -28 -61 -12 -70 5 -3 11 7 14 22 3 15 17 44
31 65 35 51 34 67 -4 67 -25 0 -38 -10 -75 -57z m309 -202 c72 -28 90 -113 35
-176 l-31 -35 -133 0 c-74 0 -136 4 -140 9 -3 6 39 8 109 6 106 -3 118 -2 148
19 46 30 57 68 34 110 -19 36 -52 56 -91 56 -32 0 -77 18 -71 29 6 9 100 -3
140 -18z"/>
<path d="M2094 1826 c-35 -41 -41 -55 -43 -101 -1 -38 4 -64 20 -95 13 -24 25
-67 27 -96 4 -44 0 -61 -22 -98 -14 -24 -26 -49 -26 -55 0 -7 24 -11 60 -11
l60 0 0 246 c0 210 -2 245 -14 241 -8 -3 -16 -1 -18 5 -2 6 -22 -10 -44 -36z
m61 -76 c0 -89 0 -90 -25 -90 -55 0 -65 8 -64 52 1 34 9 49 43 85 24 23 43 43
44 43 1 0 2 -40 2 -90z"/>
<path d="M1871 1791 c-34 -9 -47 -34 -36 -67 6 -15 17 -30 25 -32 11 -4 11 0
-3 16 -15 16 -16 24 -7 41 10 19 20 21 100 21 83 0 112 9 74 24 -20 8 -122 6
-153 -3z"/>
<path d="M917 1753 c-4 -3 -7 -91 -7 -194 0 -179 1 -188 20 -194 11 -3 20 -10
20 -15 0 -19 91 -62 143 -67 67 -7 113 8 175 55 35 26 55 35 80 34 27 -2 32 1
32 21 0 13 -4 27 -10 33 -10 10 54 124 70 124 12 0 21 28 10 35 -26 16 -118
-109 -105 -142 6 -18 -23 -55 -37 -47 -5 3 -26 -6 -46 -20 -20 -14 -54 -32
-74 -41 -42 -17 -134 -21 -108 -5 11 7 0 10 -40 11 -50 2 -52 2 -20 9 19 4 26
8 15 9 -19 1 -20 6 -14 193 3 106 4 196 2 201 -5 9 -97 10 -106 0z m78 -25
c18 -61 19 -58 -23 -58 l-39 0 10 40 c13 45 41 55 52 18z m-12 -105 c8 -28 3
-211 -6 -219 -4 -4 -10 -4 -14 0 -10 9 -14 148 -7 199 6 39 19 49 27 20z"/>
</g>
</svg>
